<svg width="16" height="12" viewBox="0 0 16 12" fill="none" xmlns="http://www.w3.org/2000/svg">
<path d="M14.5 0.813965H1.50001C0.672854 0.813965 0 1.43863 0 2.20656V10.5621C0 11.33 0.672854 11.9546 1.50001 11.9546H14.5C15.3271 11.9546 16 11.33 16 10.5621V2.20656C16 1.43863 15.3271 0.813965 14.5 0.813965ZM14.5 1.74235C14.5679 1.74235 14.6325 1.75543 14.6916 1.77829L8 7.16265L1.30833 1.77829C1.36742 1.75547 1.43204 1.74235 1.49998 1.74235H14.5ZM14.5 11.0262H1.50001C1.22414 11.0262 0.999996 10.8182 0.999996 10.562V2.75914L7.67236 8.12775C7.76661 8.20343 7.8833 8.24108 8 8.24108C8.1167 8.24108 8.23339 8.20346 8.32764 8.12775L15 2.75914V10.5621C15 10.8182 14.7759 11.0262 14.5 11.0262Z" fill="#2196F3"/>
</svg>
