<svg width="45" height="50" viewBox="0 0 45 50" fill="none" xmlns="http://www.w3.org/2000/svg">
<path d="M6 0.281738L13.3076 7.16187H33.6924V26.3542L41 33.2344V0.281738H6Z" fill="#AFB1B8"/>
<path d="M0 6.87207V38.8831H34V26.1589L13.5231 6.87999L0 6.87207ZM27.5231 34.2006H5.38008V12.6716H6.9453V32.7428H27.5231V34.2006Z" fill="#AFB1B8"/>
<path d="M9.79102 44.8376L10.6089 43.1531H11.2925L10.1011 45.3992V46.7078H9.48096V45.3992L8.28711 43.1531H8.97314L9.79102 44.8376ZM13.3018 45.8801H11.9248L11.6367 46.7078H10.9946L12.3374 43.1531H12.8916L14.2368 46.7078H13.5923L13.3018 45.8801ZM12.0981 45.3821H13.1284L12.6133 43.9075L12.0981 45.3821ZM15.7358 45.7483C15.7358 45.5839 15.7806 45.4333 15.8701 45.2966C15.9596 45.1583 16.1362 44.9947 16.3999 44.8059C16.2616 44.6318 16.1647 44.4836 16.1094 44.3616C16.0557 44.2395 16.0288 44.1215 16.0288 44.0076C16.0288 43.7292 16.1134 43.5095 16.2827 43.3484C16.452 43.1856 16.6799 43.1042 16.9663 43.1042C17.2251 43.1042 17.4367 43.1807 17.6011 43.3337C17.7671 43.4851 17.8501 43.6731 17.8501 43.8977C17.8501 44.0458 17.8127 44.1825 17.7378 44.3079C17.6629 44.4316 17.54 44.5553 17.3691 44.679L17.1274 44.8547L17.8135 45.6653C17.9128 45.47 17.9624 45.2527 17.9624 45.0134H18.4775C18.4775 45.4513 18.375 45.8101 18.1699 46.0901L18.6924 46.7078H18.0039L17.8037 46.4709C17.5498 46.6614 17.2471 46.7566 16.8955 46.7566C16.5439 46.7566 16.2624 46.6638 16.0508 46.4783C15.8408 46.2911 15.7358 46.0478 15.7358 45.7483ZM16.9126 46.283C17.1128 46.283 17.3 46.2162 17.4741 46.0828L16.6978 45.1672L16.6221 45.2209C16.4268 45.3691 16.3291 45.5383 16.3291 45.7288C16.3291 45.8931 16.382 46.0266 16.4878 46.1292C16.5936 46.2317 16.7352 46.283 16.9126 46.283ZM16.5854 43.9929C16.5854 44.1296 16.6693 44.3014 16.8369 44.5081L17.1079 44.3225L17.1836 44.2615C17.2845 44.172 17.335 44.0572 17.335 43.9172C17.335 43.8245 17.3 43.7455 17.23 43.6804C17.16 43.6137 17.0713 43.5803 16.9639 43.5803C16.8483 43.5803 16.7563 43.6194 16.688 43.6975C16.6196 43.7756 16.5854 43.8741 16.5854 43.9929ZM23.043 45.5505C23.0072 45.9298 22.8672 46.226 22.623 46.4392C22.3789 46.6508 22.0542 46.7566 21.6489 46.7566C21.3657 46.7566 21.1159 46.6899 20.8994 46.5564C20.6846 46.4213 20.5186 46.2301 20.4014 45.9827C20.2842 45.7353 20.2231 45.448 20.2183 45.1208V44.7888C20.2183 44.4535 20.2777 44.1581 20.3965 43.9026C20.5153 43.6471 20.6854 43.4501 20.9067 43.3118C21.1297 43.1734 21.3869 43.1042 21.6782 43.1042C22.0705 43.1042 22.3862 43.2109 22.6255 43.4241C22.8647 43.6373 23.0039 43.9384 23.043 44.3274H22.4277C22.3984 44.0719 22.3236 43.8879 22.2031 43.7756C22.0843 43.6617 21.9093 43.6047 21.6782 43.6047C21.4097 43.6047 21.203 43.7032 21.0581 43.9001C20.9149 44.0955 20.8416 44.3827 20.8384 44.762V45.0769C20.8384 45.461 20.9067 45.754 21.0435 45.9558C21.1818 46.1576 21.3836 46.2585 21.6489 46.2585C21.8914 46.2585 22.0737 46.204 22.1958 46.095C22.3179 45.9859 22.3952 45.8044 22.4277 45.5505H23.043ZM26.4341 45.0232C26.4341 45.3715 26.3739 45.6775 26.2534 45.9412C26.133 46.2032 25.9604 46.405 25.7358 46.5466C25.5129 46.6866 25.2557 46.7566 24.9644 46.7566C24.6763 46.7566 24.4191 46.6866 24.1929 46.5466C23.9683 46.405 23.7941 46.204 23.6704 45.9436C23.5483 45.6832 23.4865 45.3829 23.4849 45.0427V44.8425C23.4849 44.4958 23.5459 44.1899 23.668 43.9246C23.7917 43.6593 23.965 43.4566 24.188 43.3167C24.4126 43.175 24.6698 43.1042 24.9595 43.1042C25.2492 43.1042 25.5055 43.1742 25.7285 43.3142C25.9531 43.4526 26.1265 43.6528 26.2485 43.9148C26.3706 44.1752 26.4325 44.4788 26.4341 44.8254V45.0232ZM25.8164 44.8376C25.8164 44.4438 25.7415 44.1418 25.5918 43.9319C25.4437 43.7219 25.2329 43.6169 24.9595 43.6169C24.6925 43.6169 24.4834 43.7219 24.332 43.9319C24.1823 44.1402 24.1058 44.4356 24.1025 44.8181V45.0232C24.1025 45.4138 24.1782 45.7157 24.3296 45.929C24.4826 46.1422 24.6942 46.2488 24.9644 46.2488C25.2378 46.2488 25.4478 46.1446 25.5942 45.9363C25.7424 45.7279 25.8164 45.4236 25.8164 45.0232V44.8376Z" fill="#AFB1B8"/>
</svg>
