<svg width="41" height="43" viewBox="0 0 41 43" fill="none" xmlns="http://www.w3.org/2000/svg">
<path d="M6.34566 41.8258C6.36067 41.8262 6.37546 41.8294 6.38915 41.8353C6.40284 41.8411 6.41516 41.8495 6.42539 41.8599L6.63116 42.0745C6.47144 42.2481 6.27403 42.3869 6.05243 42.4815C5.79293 42.5848 5.51326 42.6346 5.23192 42.6278C4.96755 42.633 4.70488 42.5865 4.46028 42.4913C4.23964 42.4039 4.04139 42.2725 3.87898 42.1061C3.71321 41.9336 3.58553 41.7314 3.50344 41.5114C3.41355 41.2661 3.36916 41.008 3.37226 40.7484C3.36861 40.4871 3.4166 40.2275 3.51373 39.9829C3.60359 39.7615 3.73912 39.5593 3.91241 39.3882C4.08805 39.2203 4.29815 39.0884 4.52973 39.0006C4.78306 38.9075 5.05283 38.8612 5.32452 38.8641C5.57689 38.8582 5.82792 38.9005 6.06272 38.9884C6.26644 39.0721 6.45349 39.1884 6.61573 39.3321L6.4434 39.5612C6.43149 39.5774 6.41669 39.5914 6.39967 39.6027C6.37934 39.6159 6.35477 39.6219 6.33022 39.6197C6.30353 39.618 6.27779 39.6096 6.25563 39.5954L6.16303 39.5344L6.03443 39.4564C5.97891 39.4274 5.92133 39.4022 5.86209 39.3808C5.78581 39.355 5.70756 39.3346 5.62803 39.3199C5.52709 39.3023 5.42457 39.2941 5.32195 39.2955C5.12631 39.2932 4.93215 39.328 4.75093 39.3979C4.58192 39.4626 4.42937 39.5607 4.30338 39.6855C4.17512 39.8183 4.07629 39.9742 4.01273 40.1438C3.94029 40.3379 3.90458 40.5425 3.90727 40.7484C3.90418 40.9574 3.93988 41.1653 4.01273 41.3627C4.07549 41.5308 4.1725 41.6857 4.29823 41.8185C4.41604 41.9423 4.56206 42.039 4.72521 42.1013C4.89311 42.1672 5.07333 42.2004 5.25507 42.1988C5.36005 42.2003 5.465 42.1938 5.56887 42.1793C5.73848 42.1597 5.90118 42.1038 6.04472 42.0159C6.11671 41.9709 6.18467 41.9204 6.24792 41.8648C6.27436 41.8409 6.30914 41.827 6.34566 41.8258Z" fill="#AFB1B8"/>
<path d="M12.2871 40.748C12.2903 41.0066 12.2432 41.2636 12.1482 41.506C12.0644 41.7259 11.9323 41.9265 11.7608 42.0946C11.5892 42.2626 11.382 42.3943 11.1528 42.4809C10.6492 42.6629 10.0925 42.6629 9.58896 42.4809C9.36125 42.3929 9.15539 42.261 8.98452 42.0934C8.81305 41.9223 8.68004 41.72 8.59356 41.4987C8.40827 41.0078 8.40827 40.4712 8.59356 39.9803C8.6813 39.7589 8.81414 39.556 8.98452 39.3832C9.15685 39.2209 9.3626 39.094 9.58896 39.0103C10.0919 38.825 10.6499 38.825 11.1528 39.0103C11.3813 39.0982 11.588 39.2302 11.7598 39.3978C11.9292 39.5672 12.0612 39.7669 12.1482 39.9852C12.2435 40.2292 12.2906 40.4878 12.2871 40.748ZM11.747 40.748C11.751 40.5412 11.718 40.3351 11.6492 40.1387C11.5916 39.9705 11.4979 39.8153 11.374 39.683C11.2534 39.5577 11.1049 39.4595 10.9393 39.3954C10.5734 39.2621 10.1684 39.2621 9.80245 39.3954C9.63684 39.4595 9.48836 39.5577 9.36776 39.683C9.24215 39.8145 9.14747 39.9699 9.08997 40.1387C8.9591 40.5355 8.9591 40.9606 9.08997 41.3574C9.14803 41.526 9.24265 41.6812 9.36776 41.8131C9.48851 41.9376 9.637 42.035 9.80245 42.0983C10.169 42.2282 10.5728 42.2282 10.9393 42.0983C11.1048 42.035 11.2533 41.9376 11.374 41.8131C11.4974 41.6804 11.591 41.5254 11.6492 41.3574C11.7183 41.161 11.7513 40.9549 11.747 40.748Z" fill="#AFB1B8"/>
<path d="M16.3408 41.3869L16.3948 41.5234C16.4154 41.4747 16.4334 41.4308 16.4539 41.3869C16.4736 41.3411 16.4959 41.2963 16.5208 41.2529L17.8352 38.9889C17.8609 38.9499 17.884 38.9255 17.9098 38.9182C17.9447 38.9081 17.9813 38.904 18.0178 38.906H18.4062V42.5884H17.9458V39.8808C17.9458 39.8467 17.9458 39.8077 17.9458 39.7663C17.9433 39.7241 17.9433 39.6818 17.9458 39.6396L16.6237 41.9353C16.6069 41.9696 16.58 41.9987 16.5463 42.019C16.5125 42.0393 16.4733 42.05 16.4334 42.0498H16.3588C16.3187 42.0503 16.2794 42.0398 16.2456 42.0194C16.2118 41.9991 16.185 41.9698 16.1684 41.9353L14.8078 39.6249C14.8078 39.6688 14.8078 39.7127 14.8078 39.7565C14.8078 39.8004 14.8078 39.8394 14.8078 39.8735V42.5811H14.3628V38.906H14.7512C14.7877 38.904 14.8243 38.9081 14.8592 38.9182C14.8911 38.9332 14.9165 38.9582 14.9312 38.9889L16.2739 41.2553C16.3003 41.2972 16.3227 41.3413 16.3408 41.3869Z" fill="#AFB1B8"/>
<path d="M21.2869 41.2039V42.5833H20.7725V38.9059H21.9196C22.1362 38.902 22.3521 38.9291 22.5601 38.9863C22.7266 39.031 22.881 39.1091 23.0128 39.2154C23.127 39.315 23.2151 39.4385 23.27 39.5761C23.3307 39.7261 23.3604 39.8857 23.3575 40.0464C23.3597 40.2077 23.3274 40.3677 23.2623 40.5167C23.2005 40.6578 23.1054 40.7837 22.9845 40.8847C22.8525 40.9954 22.6974 41.0784 22.5292 41.1284C22.329 41.189 22.1195 41.2178 21.9093 41.2137L21.2869 41.2039ZM21.2869 40.8092H21.9093C22.0446 40.8108 22.1792 40.7919 22.308 40.7531C22.4143 40.7192 22.5123 40.6653 22.5961 40.5947C22.6734 40.5273 22.7332 40.4439 22.771 40.351C22.8131 40.2528 22.8341 40.1475 22.8327 40.0415C22.8387 39.9393 22.8211 39.8371 22.7811 39.7419C22.7412 39.6468 22.6798 39.5611 22.6013 39.4908C22.4047 39.3454 22.1579 39.275 21.9093 39.2934H21.2869V40.8092Z" fill="#AFB1B8"/>
<path d="M28.2007 42.5883H27.7943C27.7536 42.5897 27.7135 42.5777 27.6812 42.5541C27.652 42.5312 27.6291 42.5019 27.6143 42.4688L27.2645 41.5792H25.5077L25.145 42.4688C25.1317 42.5014 25.1095 42.5299 25.0807 42.5517C25.048 42.5767 25.007 42.5896 24.965 42.5883H24.5586L26.1019 38.9055H26.6369L28.2007 42.5883ZM25.6543 41.2209H27.105L26.4928 39.722C26.4461 39.6093 26.4074 39.4936 26.3771 39.3759L26.3179 39.5685C26.2999 39.627 26.2794 39.6806 26.2614 39.7244L25.6543 41.2209Z" fill="#AFB1B8"/>
<path d="M30.4233 38.9227C30.4541 38.9386 30.4805 38.9612 30.5005 38.9885L32.7511 41.7645C32.7511 41.7206 32.7511 41.6768 32.7511 41.6353C32.7511 41.5939 32.7511 41.5525 32.7511 41.5135V38.9056H33.2115V42.5883H32.9543C32.9178 42.5893 32.8816 42.5818 32.8489 42.5663C32.8171 42.5488 32.7892 42.5256 32.7666 42.4981L30.5185 39.7245C30.521 39.7667 30.521 39.809 30.5185 39.8512C30.5185 39.8927 30.5185 39.9292 30.5185 39.9634V42.5883H30.0581V38.9056H30.3308C30.3626 38.9048 30.3942 38.9106 30.4233 38.9227Z" fill="#AFB1B8"/>
<path d="M37.0028 41.1236V42.5859H36.4883V41.1236L35.0659 38.9057H35.5263C35.566 38.9034 35.6052 38.9147 35.6369 38.9373C35.6649 38.961 35.6884 38.989 35.7064 39.0202L36.5964 40.4509C36.6324 40.5118 36.6632 40.5679 36.689 40.6215C36.7147 40.6751 36.7353 40.7263 36.7533 40.7775L36.8201 40.6191C36.8451 40.5611 36.8743 40.5049 36.9076 40.4509L37.7847 39.0105C37.8031 38.9817 37.8256 38.9555 37.8516 38.9325C37.8821 38.9072 37.9217 38.8941 37.9622 38.8959H38.4277L37.0028 41.1236Z" fill="#AFB1B8"/>
<path d="M16.0859 32.7255C16.3097 32.7523 16.5361 32.7742 16.765 32.7937C20.2356 31.3226 23.1716 28.9149 25.206 25.8715C27.2404 22.8282 28.283 19.2841 28.2033 15.6824L24.3785 12.0583C25.1562 15.893 24.7925 19.8571 23.3279 23.5071C21.8634 27.157 19.3559 30.3489 16.0859 32.7255Z" fill="#AFB1B8"/>
<path d="M14.7202 32.5569L14.8231 32.5764C18.3173 30.2083 20.9814 26.9013 22.4708 23.0832C23.9601 19.2651 24.2063 15.1114 23.1774 11.1593L17.7296 5.99756C19.9331 10.2404 20.82 14.9888 20.2873 19.6905C19.7546 24.3922 17.824 28.8539 14.7202 32.5569Z" fill="#AFB1B8"/>
<path d="M33.1959 19.9377C32.2704 23.8952 30.0225 27.4643 26.7861 30.1152C25.841 30.8937 24.8214 31.5872 23.7407 32.1868C26.3761 31.4528 28.7983 30.1553 30.8207 28.3941C32.8432 26.6329 34.4117 24.4552 35.4054 22.0288L33.1959 19.9377Z" fill="#AFB1B8"/>
<path d="M32.3292 19.3549L29.1835 16.3743C29.1233 19.7726 28.1037 23.0936 26.2306 25.9922C24.3575 28.8908 21.6993 31.2612 18.5322 32.8569H18.5477C19.2534 32.8567 19.9586 32.8168 20.6594 32.7375C23.6192 31.5928 26.2339 29.7717 28.2702 27.4366C30.3064 25.1014 31.7009 22.325 32.3292 19.3549Z" fill="#AFB1B8"/>
<path d="M15.1757 3.82049L11.4229 0.259766C8.06808 1.48814 5.18278 3.64757 3.14464 6.45543C1.1065 9.2633 0.0104686 12.5888 0 15.9966H0C0.0125737 19.7622 1.3502 23.4163 3.80116 26.3805C6.25213 29.3447 9.67642 31.4497 13.5321 32.3623C16.974 28.3889 18.9892 23.4791 19.2847 18.3463C19.5803 13.2135 18.1409 8.12513 15.1757 3.82049Z" fill="#AFB1B8"/>
<path d="M41.0002 18.8069C40.9867 14.3393 39.1076 10.0583 35.7735 6.89922C32.4394 3.74011 27.9213 1.95965 23.2062 1.94679C21.0274 1.94465 18.8671 2.3256 16.835 3.07031L39.8119 24.8413C40.5987 22.9168 41.0016 20.8707 41.0002 18.8069Z" fill="#AFB1B8"/>
</svg>
