<svg width="89" height="46" viewBox="0 0 89 46" fill="none" xmlns="http://www.w3.org/2000/svg">
<path d="M44.7404 21.5072C44.3224 20.9004 44.1225 20.1833 44.1699 19.4614V16.4952C44.1699 15.5859 44.359 14.8949 44.7372 14.4222C45.1154 13.9494 45.7649 13.7141 46.6858 13.7161C47.5512 13.7161 48.1654 13.9172 48.5287 14.3196C48.9249 14.8329 49.1176 15.4607 49.0735 16.0939V16.7909H47.5255V16.0848C47.531 15.8537 47.516 15.6226 47.4807 15.3938C47.4584 15.2374 47.3804 15.0927 47.2595 14.9834C47.1006 14.8656 46.9003 14.8085 46.6987 14.8235C46.4866 14.8086 46.2762 14.8689 46.1089 14.9925C45.9741 15.1136 45.8842 15.2722 45.8525 15.4451C45.8081 15.6872 45.7878 15.9327 45.7916 16.1784V19.7782C45.7672 20.1255 45.8355 20.473 45.9904 20.7891C46.0673 20.896 46.1743 20.9808 46.2993 21.0341C46.4243 21.0873 46.5625 21.107 46.6987 21.0908C46.897 21.1062 47.0937 21.0477 47.2467 20.9279C47.3728 20.81 47.454 20.6562 47.4775 20.4904C47.5136 20.2515 47.5297 20.0104 47.5255 19.7692V19.0389H49.0735V19.7058C49.117 20.3658 48.9289 21.021 48.5383 21.5706C48.1825 22.0112 47.5768 22.2314 46.6858 22.2314C45.7949 22.2314 45.1218 21.9961 44.7404 21.5072Z" fill="#AFB1B8"/>
<path d="M51.1856 21.5374C50.7946 21.0757 50.5991 20.4028 50.5991 19.5127V16.3926C50.5991 15.5115 50.7946 14.8446 51.1856 14.392C51.5766 13.9394 52.2304 13.7141 53.147 13.7161C54.0572 13.7161 54.7078 13.9414 55.0988 14.392C55.4898 14.8446 55.6885 15.5115 55.6885 16.3926V19.5127C55.6885 20.3938 55.4898 21.0697 55.0924 21.5344C54.695 21.9991 54.0476 22.2314 53.147 22.2314C52.2464 22.2314 51.5798 21.9961 51.1856 21.5374ZM53.8681 20.7891C54.0081 20.4999 54.0719 20.1831 54.054 19.8657V16.0456C54.072 15.7344 54.0093 15.4237 53.8713 15.1403C53.7928 15.0311 53.6832 14.945 53.5551 14.8916C53.4271 14.8382 53.2856 14.8199 53.147 14.8386C53.0079 14.8203 52.8662 14.8389 52.7377 14.8922C52.6093 14.9455 52.4991 15.0314 52.4195 15.1403C52.2786 15.4228 52.2147 15.734 52.2336 16.0456V19.8838C52.2141 20.2013 52.278 20.5184 52.4195 20.8072C52.5097 20.9045 52.6211 20.9825 52.746 21.036C52.8709 21.0895 53.0066 21.1171 53.1438 21.1171C53.281 21.1171 53.4167 21.0895 53.5416 21.036C53.6665 20.9825 53.7779 20.9045 53.8681 20.8072V20.7891Z" fill="#AFB1B8"/>
<path d="M57.5505 13.8069H59.2171L60.4702 19.5638L61.7522 13.8069H63.3739L63.5374 22.1165H62.3387L62.2105 16.3414L60.9734 22.1165H60.0119L58.7299 16.3203L58.6114 22.1165H57.3999L57.5505 13.8069Z" fill="#AFB1B8"/>
<path d="M65.4061 13.8069H68.0021C69.4977 13.8069 70.2455 14.5934 70.2455 16.1664C70.2455 17.673 69.4581 18.4253 67.8835 18.4233H66.9989V22.1165H65.3965L65.4061 13.8069ZM67.6239 17.3582C67.7822 17.3771 67.943 17.3635 68.0952 17.3181C68.2474 17.2728 68.3873 17.1969 68.5052 17.0957C68.689 16.8151 68.77 16.4855 68.736 16.1573C68.7444 15.9038 68.7185 15.6504 68.6591 15.403C68.6362 15.3204 68.5961 15.2429 68.5411 15.175C68.486 15.1072 68.4172 15.0503 68.3386 15.0078C68.1161 14.9073 67.8702 14.8616 67.6239 14.875H67.0021V17.3582H67.6239Z" fill="#AFB1B8"/>
<path d="M72.5559 13.8069H74.277L76.0428 22.1165H74.5494L74.2 20.2005H72.6649L72.3059 22.1165H70.79L72.5559 13.8069ZM74.027 19.238L73.4277 15.75L72.8283 19.238H74.027Z" fill="#AFB1B8"/>
<path d="M77.469 13.8069H78.5908L80.7381 18.547V13.8069H82.0681V22.1165H81.0009L78.8407 17.1681V22.1165H77.4658L77.469 13.8069Z" fill="#AFB1B8"/>
<path d="M85.1836 18.9482L83.3984 13.8186H84.9015L85.9912 17.1136L87.0136 13.8186H88.4846L86.7219 18.9482V22.1165H85.1836V18.9482Z" fill="#AFB1B8"/>
<path d="M47.2146 25.7495V26.184H45.907V29.5605H45.3589V26.184H44.0449V25.7495H47.2146Z" fill="#AFB1B8"/>
<path d="M51.3141 29.5609H50.891C50.8481 29.5634 50.8057 29.5505 50.7724 29.5247C50.7404 29.5026 50.7159 29.4722 50.7019 29.4372L50.3238 28.532H48.5097L48.1316 29.4372C48.1208 29.475 48.1011 29.5101 48.0739 29.5398C48.0403 29.565 47.9982 29.5779 47.9553 29.576H47.5322L49.1347 25.7651H49.6924L51.3141 29.5609ZM48.6604 28.1458H50.1731L49.5321 26.5949C49.4848 26.4776 49.4452 26.3577 49.4135 26.2358C49.3911 26.3083 49.3719 26.3776 49.3526 26.438L49.295 26.5979L48.6604 28.1458Z" fill="#AFB1B8"/>
<path d="M54.0766 29.1865C54.177 29.1914 54.2775 29.1914 54.3779 29.1865C54.4645 29.1781 54.5503 29.163 54.6343 29.1412C54.7128 29.1231 54.7899 29.0999 54.865 29.0718C54.9356 29.0447 55.0061 29.0115 55.0798 28.9783V28.1212H54.4388C54.4229 28.1221 54.4071 28.1198 54.3922 28.1146C54.3773 28.1094 54.3637 28.1014 54.3523 28.091C54.3417 28.0825 54.3334 28.0718 54.3279 28.0598C54.3223 28.0478 54.3197 28.0347 54.3202 28.0216V27.7289H55.5637V29.1895C55.4622 29.2579 55.355 29.3184 55.2432 29.3706C55.129 29.4237 55.0099 29.4671 54.8875 29.5004C54.7564 29.5367 54.6224 29.5629 54.4869 29.5788C54.3315 29.5951 54.1753 29.6031 54.0189 29.603C53.7425 29.6051 53.4683 29.557 53.2113 29.4611C52.9714 29.3703 52.7534 29.2348 52.5703 29.0628C52.3919 28.889 52.2514 28.6839 52.1569 28.4592C52.0559 28.2066 52.0059 27.9385 52.0095 27.6686C52.0061 27.397 52.055 27.1271 52.1537 26.8719C52.2459 26.646 52.3866 26.4405 52.5671 26.2683C52.75 26.0968 52.9681 25.9623 53.2081 25.873C53.4825 25.7758 53.7738 25.7277 54.067 25.7311C54.2162 25.731 54.3652 25.7421 54.5125 25.7643C54.6428 25.7843 54.7706 25.8167 54.8939 25.8609C55.006 25.9006 55.1134 25.9511 55.2144 26.0118C55.3126 26.0713 55.4058 26.1379 55.4932 26.211L55.3394 26.4463C55.3273 26.4678 55.3094 26.4859 55.2874 26.4987C55.2654 26.5114 55.2402 26.5183 55.2144 26.5188C55.1789 26.5177 55.1445 26.5072 55.115 26.4886C55.067 26.4645 55.0157 26.4343 54.958 26.3981C54.8898 26.3578 54.818 26.3235 54.7433 26.2955C54.6477 26.2594 54.5491 26.2311 54.4484 26.211C54.3142 26.1877 54.1779 26.1766 54.0414 26.1778C53.8299 26.1756 53.62 26.2114 53.4228 26.2834C53.2445 26.3508 53.0838 26.4537 52.9517 26.5852C52.8189 26.7222 52.7174 26.8834 52.6536 27.059C52.5105 27.4717 52.5105 27.9167 52.6536 28.3294C52.7238 28.5087 52.833 28.6721 52.9741 28.8093C53.1056 28.94 53.2651 29.0429 53.4421 29.1111C53.6458 29.1769 53.8619 29.2026 54.0766 29.1865Z" fill="#AFB1B8"/>
<path d="M59.1851 29.126H60.9351V29.5605H58.6499V25.7495H59.198L59.1851 29.126Z" fill="#AFB1B8"/>
<path d="M62.7556 29.5605H62.2075V25.7495H62.7556V29.5605Z" fill="#AFB1B8"/>
<path d="M64.7939 25.7678C64.8265 25.7853 64.8548 25.8089 64.8772 25.8372L67.22 28.7099C67.2168 28.6647 67.2168 28.6193 67.22 28.5741C67.22 28.5318 67.22 28.4896 67.22 28.4504V25.7346H67.6975V29.5608H67.4219C67.3811 29.564 67.3401 29.5567 67.3033 29.5397C67.27 29.5207 67.2407 29.4962 67.2168 29.4673L64.8772 26.5976C64.8772 26.6429 64.8772 26.6851 64.8772 26.7274C64.8772 26.7696 64.8772 26.8089 64.8772 26.8451V29.5608H64.4189V25.7497H64.7042C64.7351 25.7498 64.7657 25.7559 64.7939 25.7678Z" fill="#AFB1B8"/>
<path d="M71.7323 25.7495V26.1689H69.7901V27.4272H71.3637V27.8316H69.7901V29.1321H71.7323V29.5515H69.2261V25.7495H71.7323Z" fill="#AFB1B8"/>
<path d="M14.3035 2.2142L38.6385 8.71972V31.5162L14.3035 25.0137V2.2142ZM12.7427 0.270996V26.1211L40.196 33.4624V7.61535L12.7427 0.270996Z" fill="#AFB1B8"/>
<path d="M27.4565 45.4624L0 38.1149V12.2673L27.4565 19.6118V45.4624Z" fill="#AFB1B8"/>
<path d="M13.1978 1.92147L37.2155 8.34536L27.0014 17.9646L2.98057 11.5377L13.1978 1.92147ZM12.7427 0.270996L0 12.2679L27.4565 19.6121L40.196 7.61517L12.7427 0.270996Z" fill="#AFB1B8"/>
<path d="M29.0015 44.0083L40.1962 33.4657L29.0015 30.4695V44.0083Z" fill="#AFB1B8"/>
</svg>
