<svg width="80" height="43" viewBox="0 0 80 43" fill="none" xmlns="http://www.w3.org/2000/svg">
<path d="M12.4022 13.0203H12.3995C10.1372 13.0203 8.30322 14.7976 8.30322 16.9901V16.9928C8.30322 19.1853 10.1372 20.9626 12.3995 20.9626H12.4022C14.6645 20.9626 16.4985 19.1853 16.4985 16.9928V16.9901C16.4985 14.7976 14.6645 13.0203 12.4022 13.0203Z" fill="#2196F3"/>
<path d="M42.6368 11.7511C42.6304 8.70575 41.3795 5.7869 39.1579 3.63329C36.9363 1.47967 33.925 0.26668 30.7828 0.259766V0.259766C27.6397 0.265298 24.6269 1.47768 22.4042 3.63144C20.1814 5.78521 18.9298 8.70484 18.9233 11.7511V28.5444C18.9233 28.5444 42.6341 25.985 42.6368 11.7537V11.7511Z" fill="#2196F3"/>
<path d="M0 34.0563C0.00569902 36.1752 0.876554 38.2059 2.42227 39.7045C3.96798 41.203 6.06289 42.0477 8.24921 42.054C10.4351 42.0477 12.5296 41.2034 14.0752 39.7054C15.6208 38.2074 16.492 36.1774 16.4984 34.0589V22.3738C16.4984 22.3738 0 24.156 0 34.0563ZM8.24921 36.1499C7.82196 36.1499 7.40431 36.0271 7.04907 35.7971C6.69383 35.567 6.41696 35.24 6.25346 34.8575C6.08996 34.4749 6.04718 34.0539 6.13053 33.6478C6.21388 33.2417 6.41962 32.8686 6.72173 32.5758C7.02383 32.283 7.40874 32.0836 7.82778 32.0029C8.24681 31.9221 8.68115 31.9635 9.07587 32.122C9.4706 32.2805 9.80797 32.5488 10.0453 32.8931C10.2827 33.2374 10.4094 33.6422 10.4094 34.0563C10.4105 34.3319 10.3554 34.605 10.2473 34.8599C10.1392 35.1148 9.98026 35.3465 9.77956 35.5418C9.57886 35.737 9.34036 35.8919 9.07775 35.9976C8.81513 36.1033 8.53357 36.1578 8.24921 36.1578V36.1499Z" fill="#2196F3"/>
<path d="M25.0889 34.874H23.4014V36.6172H22.5225V32.3516H25.2998V33.0635H23.4014V34.165H25.0889V34.874ZM29.3135 34.5811C29.3135 35.001 29.2393 35.3691 29.0908 35.6855C28.9424 36.002 28.7295 36.2461 28.4521 36.418C28.1768 36.5898 27.8604 36.6758 27.5029 36.6758C27.1494 36.6758 26.834 36.5908 26.5566 36.4209C26.2793 36.251 26.0645 36.0088 25.9121 35.6943C25.7598 35.3779 25.6826 35.0146 25.6807 34.6045V34.3936C25.6807 33.9736 25.7559 33.6045 25.9062 33.2861C26.0586 32.9658 26.2725 32.7207 26.5479 32.5508C26.8252 32.3789 27.1416 32.293 27.4971 32.293C27.8525 32.293 28.168 32.3789 28.4434 32.5508C28.7207 32.7207 28.9346 32.9658 29.085 33.2861C29.2373 33.6045 29.3135 33.9727 29.3135 34.3906V34.5811ZM28.4229 34.3877C28.4229 33.9404 28.3428 33.6006 28.1826 33.3682C28.0225 33.1357 27.7939 33.0195 27.4971 33.0195C27.2021 33.0195 26.9746 33.1348 26.8145 33.3652C26.6543 33.5938 26.5732 33.9297 26.5713 34.373V34.5811C26.5713 35.0166 26.6514 35.3545 26.8115 35.5947C26.9717 35.835 27.2021 35.9551 27.5029 35.9551C27.7979 35.9551 28.0244 35.8398 28.1826 35.6094C28.3408 35.377 28.4209 35.0391 28.4229 34.5957V34.3877ZM32.1641 35.498C32.1641 35.332 32.1055 35.2051 31.9883 35.1172C31.8711 35.0273 31.6602 34.9336 31.3555 34.8359C31.0508 34.7363 30.8096 34.6387 30.6318 34.543C30.1475 34.2812 29.9053 33.9287 29.9053 33.4854C29.9053 33.2549 29.9697 33.0498 30.0986 32.8701C30.2295 32.6885 30.416 32.5469 30.6582 32.4453C30.9023 32.3438 31.1758 32.293 31.4785 32.293C31.7832 32.293 32.0547 32.3486 32.293 32.46C32.5312 32.5693 32.7158 32.7246 32.8467 32.9258C32.9795 33.127 33.0459 33.3555 33.0459 33.6113H32.167C32.167 33.416 32.1055 33.2646 31.9824 33.1572C31.8594 33.0479 31.6865 32.9932 31.4639 32.9932C31.249 32.9932 31.082 33.0391 30.9629 33.1309C30.8438 33.2207 30.7842 33.3398 30.7842 33.4883C30.7842 33.627 30.8535 33.7432 30.9922 33.8369C31.1328 33.9307 31.3389 34.0186 31.6104 34.1006C32.1104 34.251 32.4746 34.4375 32.7031 34.6602C32.9316 34.8828 33.0459 35.1602 33.0459 35.4922C33.0459 35.8613 32.9062 36.1514 32.627 36.3623C32.3477 36.5713 31.9717 36.6758 31.499 36.6758C31.1709 36.6758 30.8721 36.6162 30.6025 36.4971C30.333 36.376 30.127 36.2109 29.9844 36.002C29.8438 35.793 29.7734 35.5508 29.7734 35.2754H30.6553C30.6553 35.7461 30.9365 35.9814 31.499 35.9814C31.708 35.9814 31.8711 35.9395 31.9883 35.8555C32.1055 35.7695 32.1641 35.6504 32.1641 35.498ZM36.8545 33.0635H35.5479V36.6172H34.6689V33.0635H33.3799V32.3516H36.8545V33.0635ZM39.9248 34.7686H38.2373V35.9111H40.2178V36.6172H37.3584V32.3516H40.2119V33.0635H38.2373V34.0801H39.9248V34.7686ZM42.3125 35.0557H41.6123V36.6172H40.7334V32.3516H42.3184C42.8223 32.3516 43.2109 32.4639 43.4844 32.6885C43.7578 32.9131 43.8945 33.2305 43.8945 33.6406C43.8945 33.9316 43.8311 34.1748 43.7041 34.3701C43.5791 34.5635 43.3887 34.7178 43.1328 34.833L44.0557 36.5762V36.6172H43.1123L42.3125 35.0557ZM41.6123 34.3438H42.3213C42.542 34.3438 42.7129 34.2881 42.834 34.1768C42.9551 34.0635 43.0156 33.9082 43.0156 33.7109C43.0156 33.5098 42.958 33.3516 42.8428 33.2363C42.7295 33.1211 42.5547 33.0635 42.3184 33.0635H41.6123V34.3438ZM46.9385 35.1143V36.6172H46.0596V32.3516H47.7236C48.0439 32.3516 48.3252 32.4102 48.5674 32.5273C48.8115 32.6445 48.999 32.8115 49.1299 33.0283C49.2607 33.2432 49.3262 33.4883 49.3262 33.7637C49.3262 34.1816 49.1826 34.5117 48.8955 34.7539C48.6104 34.9941 48.2148 35.1143 47.709 35.1143H46.9385ZM46.9385 34.4023H47.7236C47.9561 34.4023 48.1328 34.3477 48.2539 34.2383C48.377 34.1289 48.4385 33.9727 48.4385 33.7695C48.4385 33.5605 48.377 33.3916 48.2539 33.2627C48.1309 33.1338 47.9609 33.0674 47.7441 33.0635H46.9385V34.4023ZM52.499 34.7686H50.8115V35.9111H52.792V36.6172H49.9326V32.3516H52.7861V33.0635H50.8115V34.0801H52.499V34.7686ZM56.5771 33.0635H55.2705V36.6172H54.3916V33.0635H53.1025V32.3516H56.5771V33.0635ZM59.6475 34.7686H57.96V35.9111H59.9404V36.6172H57.0811V32.3516H59.9346V33.0635H57.96V34.0801H59.6475V34.7686ZM62.0352 35.0557H61.335V36.6172H60.4561V32.3516H62.041C62.5449 32.3516 62.9336 32.4639 63.207 32.6885C63.4805 32.9131 63.6172 33.2305 63.6172 33.6406C63.6172 33.9316 63.5537 34.1748 63.4268 34.3701C63.3018 34.5635 63.1113 34.7178 62.8555 34.833L63.7783 36.5762V36.6172H62.835L62.0352 35.0557ZM61.335 34.3438H62.0439C62.2646 34.3438 62.4355 34.2881 62.5566 34.1768C62.6777 34.0635 62.7383 33.9082 62.7383 33.7109C62.7383 33.5098 62.6807 33.3516 62.5654 33.2363C62.4521 33.1211 62.2773 33.0635 62.041 33.0635H61.335V34.3438ZM66.5 35.498C66.5 35.332 66.4414 35.2051 66.3242 35.1172C66.207 35.0273 65.9961 34.9336 65.6914 34.8359C65.3867 34.7363 65.1455 34.6387 64.9678 34.543C64.4834 34.2812 64.2412 33.9287 64.2412 33.4854C64.2412 33.2549 64.3057 33.0498 64.4346 32.8701C64.5654 32.6885 64.752 32.5469 64.9941 32.4453C65.2383 32.3438 65.5117 32.293 65.8145 32.293C66.1191 32.293 66.3906 32.3486 66.6289 32.46C66.8672 32.5693 67.0518 32.7246 67.1826 32.9258C67.3154 33.127 67.3818 33.3555 67.3818 33.6113H66.5029C66.5029 33.416 66.4414 33.2646 66.3184 33.1572C66.1953 33.0479 66.0225 32.9932 65.7998 32.9932C65.585 32.9932 65.418 33.0391 65.2988 33.1309C65.1797 33.2207 65.1201 33.3398 65.1201 33.4883C65.1201 33.627 65.1895 33.7432 65.3281 33.8369C65.4688 33.9307 65.6748 34.0186 65.9463 34.1006C66.4463 34.251 66.8105 34.4375 67.0391 34.6602C67.2676 34.8828 67.3818 35.1602 67.3818 35.4922C67.3818 35.8613 67.2422 36.1514 66.9629 36.3623C66.6836 36.5713 66.3076 36.6758 65.835 36.6758C65.5068 36.6758 65.208 36.6162 64.9385 36.4971C64.6689 36.376 64.4629 36.2109 64.3203 36.002C64.1797 35.793 64.1094 35.5508 64.1094 35.2754H64.9912C64.9912 35.7461 65.2725 35.9814 65.835 35.9814C66.0439 35.9814 66.207 35.9395 66.3242 35.8555C66.4414 35.7695 66.5 35.6504 66.5 35.498Z" fill="#2196F3"/>
</svg>
