<svg width="10" height="16" viewBox="0 0 10 16" fill="none" xmlns="http://www.w3.org/2000/svg">
<path d="M8.5 0.819458H1.5C0.672848 0.819458 0 1.44412 0 2.21204V14.2811C0 15.049 0.672848 15.6737 1.5 15.6737H8.5C9.32715 15.6737 10 15.049 10 14.2811V2.21204C10 1.44412 9.32715 0.819458 8.5 0.819458ZM1.5 1.74785H8.5C8.77588 1.74785 9 1.95592 9 2.21204V11.9601H1V2.21204C1 1.95592 1.22412 1.74785 1.5 1.74785ZM8.5 14.7453H1.5C1.22412 14.7453 1 14.5372 1 14.2811V12.8885H9V14.2811C9 14.5372 8.77588 14.7453 8.5 14.7453Z" fill="#757575"/>
<path d="M2.35355 13.4888C2.54882 13.6701 2.54882 13.9641 2.35355 14.1455C2.15828 14.3268 1.84172 14.3268 1.64645 14.1455C1.45118 13.9641 1.45118 13.6701 1.64645 13.4888C1.84172 13.3074 2.15828 13.3074 2.35355 13.4888Z" fill="#757575"/>
</svg>
